<svg id="Capa_1" data-name="Capa 1" xmlns="http://www.w3.org/2000/svg" xmlns:xlink="http://www.w3.org/1999/xlink" viewBox="0 0 1352.26 500.64"><defs><style>.cls-1{fill:url(#Degradado_sin_nombre_168);}.cls-2{fill:url(#Degradado_sin_nombre_168-2);}.cls-3{fill:url(#Degradado_sin_nombre_168-3);}.cls-4{fill:url(#Degradado_sin_nombre_168-4);}.cls-5{fill:url(#Degradado_sin_nombre_168-5);}.cls-6{fill:url(#Degradado_sin_nombre_168-6);}.cls-7{fill:url(#Degradado_sin_nombre_168-7);}.cls-8{fill:url(#Degradado_sin_nombre_168-8);}.cls-9{fill:url(#Degradado_sin_nombre_168-9);}.cls-10{fill:url(#Degradado_sin_nombre_168-10);}.cls-11{fill:url(#Degradado_sin_nombre_168-11);}.cls-12{fill:url(#Degradado_sin_nombre_168-12);}.cls-13{fill:url(#Degradado_sin_nombre_168-13);}</style><linearGradient id="Degradado_sin_nombre_168" x1="11.69" y1="173.13" x2="73.95" y2="173.13" gradientUnits="userSpaceOnUse"><stop offset="0.01" stop-color="#aa6d00"/><stop offset="0.02" stop-color="#b07300"/><stop offset="0.06" stop-color="#cc8d00"/><stop offset="0.09" stop-color="#e2a200"/><stop offset="0.14" stop-color="#f1b100"/><stop offset="0.18" stop-color="#fab900"/><stop offset="0.25" stop-color="#fdbc00"/><stop offset="0.34" stop-color="#fdbd02"/><stop offset="0.38" stop-color="#fdc00a"/><stop offset="0.42" stop-color="#fdc518"/><stop offset="0.45" stop-color="#fecd2b"/><stop offset="0.48" stop-color="#fed644"/><stop offset="0.5" stop-color="#fee263"/><stop offset="0.52" stop-color="#fff087"/><stop offset="0.53" stop-color="#fff697"/><stop offset="0.56" stop-color="#ffe87f"/><stop offset="0.6" stop-color="#fed661"/><stop offset="0.64" stop-color="#fec748"/><stop offset="0.69" stop-color="#fdbc35"/><stop offset="0.75" stop-color="#fdb427"/><stop offset="0.82" stop-color="#fdaf1f"/><stop offset="0.96" stop-color="#fdae1d"/><stop offset="0.97" stop-color="#ee9e16"/><stop offset="1" stop-color="#c67604"/><stop offset="1" stop-color="#bd6d00"/></linearGradient><linearGradient id="Degradado_sin_nombre_168-2" x1="74.61" y1="191.13" x2="192.03" y2="191.13" xlink:href="#Degradado_sin_nombre_168"/><linearGradient id="Degradado_sin_nombre_168-3" x1="199.41" y1="191.13" x2="266.76" y2="191.13" xlink:href="#Degradado_sin_nombre_168"/><linearGradient id="Degradado_sin_nombre_168-4" x1="268.61" y1="191.13" x2="382.69" y2="191.13" xlink:href="#Degradado_sin_nombre_168"/><linearGradient id="Degradado_sin_nombre_168-5" x1="390.99" y1="191.1" x2="508.93" y2="191.1" xlink:href="#Degradado_sin_nombre_168"/><linearGradient id="Degradado_sin_nombre_168-6" x1="753.81" y1="173.13" x2="1303.97" y2="173.13" xlink:href="#Degradado_sin_nombre_168"/><linearGradient id="Degradado_sin_nombre_168-7" x1="864.63" y1="191.05" x2="975.72" y2="191.05" xlink:href="#Degradado_sin_nombre_168"/><linearGradient id="Degradado_sin_nombre_168-8" x1="951.35" y1="191.1" x2="1069.29" y2="191.1" xlink:href="#Degradado_sin_nombre_168"/><linearGradient id="Degradado_sin_nombre_168-9" x1="1067.1" y1="191.13" x2="1186.77" y2="191.13" xlink:href="#Degradado_sin_nombre_168"/><linearGradient id="Degradado_sin_nombre_168-10" x1="1186.48" y1="191.1" x2="1304.43" y2="191.1" xlink:href="#Degradado_sin_nombre_168"/><linearGradient id="Degradado_sin_nombre_168-11" x1="1304.75" y1="191.13" x2="1363.94" y2="191.13" xlink:href="#Degradado_sin_nombre_168"/><linearGradient id="Degradado_sin_nombre_168-12" x1="583.17" y1="178.5" x2="650.29" y2="178.5" xlink:href="#Degradado_sin_nombre_168"/><linearGradient id="Degradado_sin_nombre_168-13" x1="648.45" y1="178.5" x2="688.98" y2="178.5" xlink:href="#Degradado_sin_nombre_168"/></defs><title>juegodetronos</title><path class="cls-1" d="M60.86,227a23.83,23.83,0,0,1-3.08,11.73q-6.31,11.58-22.56,11.43-13,0-19.62-3.31c-2.16-1.1-3.46-2.21-3.91-3.31q15.55,3.23,22.7-2.86,5.27-4.52,8.5-18V110.34q-.45-6.24-6.84-10.83a23.43,23.43,0,0,0-6.24-3.38H74a23.14,23.14,0,0,0-6.24,3.38q-6.4,4.59-6.85,10.83Z" transform="translate(-11.69 -96.13)"/><path class="cls-2" d="M192,132.13a20.35,20.35,0,0,0-4.66,2.47q-4.78,3.47-5.19,8.13V195q0,25.57-15.21,41.14-13.65,14-32.21,14-20.1,0-34.11-12.16Q83.55,223,83.54,194.58V142.27a12.24,12.24,0,0,0-5-8.24,10.74,10.74,0,0,0-4-1.9h33.48a18.53,18.53,0,0,0-4.79,2.53q-4.77,3.51-5.18,8.24L98,178.45l0,14.23q0,42.81,24.37,50l3.34.86c1.3.27,2.57.48,3.8.63l5.65.35a43.27,43.27,0,0,0,4.55-.4l3.4-.58a25.65,25.65,0,0,0,17.17-11.81q7.54-12.1,7.55-36.7V145q0-6.74-4.55-10.54a11.46,11.46,0,0,0-4.61-2.36Z" transform="translate(-11.69 -96.13)"/><path class="cls-3" d="M260,134.2l4.43-2.07L260,153.67a16.08,16.08,0,0,0-1.91-6.39,10.93,10.93,0,0,0-10.42-6.45H225.22V185h24.66A18.78,18.78,0,0,0,261.64,181l-2.88,23.11a12.87,12.87,0,0,0-2-6.28q-3.81-6.23-12.68-6.23H225.22v43.79a24.41,24.41,0,0,0,5.42,5,26.13,26.13,0,0,0,15.27,5q8.24,0,15.38-7.77a34,34,0,0,0,5.47-7.78l-2.36,20.34H201.48a19.68,19.68,0,0,0,5-2.71q5.07-3.81,5.07-8.93,0-8.19-.18-96.28-2.58-5.29-12-8Z" transform="translate(-11.69 -96.13)"/><path class="cls-4" d="M356.88,201.21a3.48,3.48,0,0,0-.87-3.05q-2.53-3.53-11.06-5.65h37.74q-8.54,2.13-11.06,5.65a3.28,3.28,0,0,0-.87,3.05v40.73a30.49,30.49,0,0,1-8.29,4.1q-11.58,4.08-27.72,4.09-29.1,0-46.38-14-19.71-16-19.7-47.37-.71-14.17,6.74-28.29,14.91-28.33,55.6-28.34,32.78,2.48,41,5l-4,26.1a30.05,30.05,0,0,0-6.29-12.9q-10.08-13-29.5-13-23.44,0-37,13.66-13.71,13.83-13.71,38,0,23.17,18.78,39.3,17.36,14.86,38.38,14.86,11.64.53,18.15-5.47Z" transform="translate(-11.69 -96.13)"/><path class="cls-5" d="M451.89,132.18q20.4,0,37.85,16.65,19.18,18.39,19.19,44.66,0,25.69-19.76,42.29-17.12,14.34-37.28,14.35a65.15,65.15,0,0,1-39.18-12.51Q391,221.9,391,193.08q0-40.26,30.48-54.62A61.65,61.65,0,0,1,451.89,132.18Zm-46.15,58.95q0,23.79,11.75,37.62a43.77,43.77,0,0,0,21.61,13.66V140.13a43.71,43.71,0,0,0-21.61,13.49Q405.73,167.33,405.74,191.13Zm40.73-52.49c-1.3.15-2.59.36-3.86.63V243.33c1.35.27,2.63.5,3.86.69Zm5.82,105.67c1.46,0,3-.16,4.67-.35V139.39c-1.58-.35-3.13-.62-4.67-.81Zm8.18-1a39.62,39.62,0,0,0,21.78-12.16q12-13.2,12-37.68t-12-38.89a44.73,44.73,0,0,0-21.78-14.23Z" transform="translate(-11.69 -96.13)"/><path class="cls-6" d="M1304,102.13l-5.79,28.12a21.07,21.07,0,0,0-2.48-8.35q-4.29-8.41-13.61-8.42l-459.1-6v1.81q-.07,43.68-.15,79.7v46.92q.45,6.26,6.84,10.83a23.48,23.48,0,0,0,6.24,3.39H791.78a24.5,24.5,0,0,0,6.32-3.39q6.31-4.58,6.84-10.83V189q-.08-36-.15-79.7l-.08-1.81h-29q-9.33,0-13.69,8.42a21.76,21.76,0,0,0-2.4,8.35l-5.79-28.12,5.79,2.7,538.58,6Z" transform="translate(-11.69 -96.13)"/><path class="cls-7" d="M933.54,212.21q10,14.7,17.52,22.07,13.49,13.14,24.66,10.83c-.35.81-1.36,1.64-3.05,2.48q-5,2.53-14.87,2.54t-24.08-17a133.19,133.19,0,0,1-12.16-17.06A27.25,27.25,0,0,0,914,208q-10.6-8.17-25.75-8.18v39.52q.35,4.78,5.18,8.3a19,19,0,0,0,4.78,2.54H864.63a18.9,18.9,0,0,0,4.79-2.54q4.83-3.51,5.18-8.3V143.71q-.35-4.72-5.18-8.24a17.67,17.67,0,0,0-4.79-2.59h23.63a67.89,67.89,0,0,1,24.77.51q24.84,5.07,24.84,27.89c.26,2.77-.29,6.28-1.68,10.54q-4,12.74-16.24,23.63Q925.88,200.93,933.54,212.21ZM908,191.53a14.8,14.8,0,0,0,8.07-3.11q8-5.88,8-19.88,0-15.27-8.24-24-6.75-7.08-15.1-7.09t-9.39.47c-1.73.73-2.59,3.18-2.59,7.37q0,9.17-.46,46.21Z" transform="translate(-11.69 -96.13)"/><path class="cls-8" d="M1012.25,132.18q20.4,0,37.85,16.65,19.19,18.39,19.19,44.66,0,25.69-19.76,42.29-17.12,14.34-37.28,14.35a65.15,65.15,0,0,1-39.18-12.51q-21.72-15.72-21.72-44.54,0-40.26,30.48-54.62A61.65,61.65,0,0,1,1012.25,132.18ZM966.1,191.13q0,23.79,11.75,37.62a43.77,43.77,0,0,0,21.61,13.66V140.13a43.71,43.71,0,0,0-21.61,13.49Q966.11,167.33,966.1,191.13Zm40.73-52.49c-1.3.15-2.59.36-3.86.63V243.33c1.35.27,2.63.5,3.86.69Zm5.82,105.67c1.46,0,3-.16,4.67-.35V139.39c-1.58-.35-3.13-.62-4.67-.81Zm8.18-1a39.62,39.62,0,0,0,21.78-12.16q12-13.2,12-37.68t-12-38.89a44.73,44.73,0,0,0-21.78-14.23Z" transform="translate(-11.69 -96.13)"/><path class="cls-9" d="M1186.77,132.13a17.62,17.62,0,0,0-4.78,2.59q-4.9,3.51-5.24,8.3V250.13l-.06-.12v.12l-85.79-89v78.13q.35,4.78,5.24,8.29a18,18,0,0,0,4.78,2.6H1067.1a18,18,0,0,0,4.78-2.6q4.9-3.51,5.25-8.29V132.13L1163,222.24V143q-.35-4.78-5.25-8.3a17.62,17.62,0,0,0-4.78-2.59Z" transform="translate(-11.69 -96.13)"/><path class="cls-10" d="M1247.38,132.18q20.4,0,37.86,16.65,19.18,18.39,19.19,44.66,0,25.69-19.77,42.29-17.12,14.34-37.28,14.35a65.14,65.14,0,0,1-39.17-12.51q-21.74-15.72-21.73-44.54,0-40.26,30.48-54.62A61.65,61.65,0,0,1,1247.38,132.18Zm-46.15,58.95q0,23.79,11.76,37.62a43.79,43.79,0,0,0,21.6,13.66V140.13a43.72,43.72,0,0,0-21.6,13.49Q1201.23,167.33,1201.23,191.13ZM1242,138.64c-1.31.15-2.59.36-3.86.63V243.33c1.34.27,2.63.5,3.86.69Zm5.82,105.67c1.46,0,3-.16,4.67-.35V139.39c-1.58-.35-3.14-.62-4.67-.81Zm8.18-1a39.69,39.69,0,0,0,21.78-12.16q12-13.2,12-37.68t-12-38.89A44.82,44.82,0,0,0,1256,140.37Z" transform="translate(-11.69 -96.13)"/><path class="cls-11" d="M1306.79,220.8q0,11.35,8.29,17.28a24.12,24.12,0,0,0,14.41,4.5,26.09,26.09,0,0,0,14.63-4.9q8.48-5.64,8.47-13.71t-6.8-16.54q-4.36-5.48-16.53-16.3-11.87-10.55-16.19-16.31-6.51-8.52-6.51-17.34,0-10.26,8.24-17.52,8.92-7.83,23.1-7.83,12.33,0,18.61,2.24,3.16,1.09,3.8,2.25l-3.63,20.4a20.35,20.35,0,0,0-4.2-11.93,16.74,16.74,0,0,0-14.18-7.32q-9.67,0-14.8,3.92c-3.27,2.57-4.9,6.19-4.9,10.83q0,11.53,20.17,28.12,12.33,10.08,16.42,14.86,8.74,10.16,8.75,20.52,0,16.41-14.92,26.27a44.89,44.89,0,0,1-25,7.84,25.17,25.17,0,0,1-14.52-4.21,16,16,0,0,1-4.5-4.26Q1304,233.25,1306.79,220.8Z" transform="translate(-11.69 -96.13)"/><path class="cls-12" d="M613.61,143q23.92,0,32.69,16.92a33,33,0,0,1,4,16.92q0,18.54-11.58,28.39Q628.32,214,611.39,214H583.17l3.54-1.18c2.08-.95,3.23-2,3.47-3.22V148.13a1.94,1.94,0,0,0-.49-1.8c-1-1.37-3.17-2.47-6.52-3.33ZM609,209.91q12.27,0,22.56-9.29,11.07-9.94,11.06-23.65,0-14.24-8.07-22.36t-21.74-8q-8.8,0-14.49,4.65v55.47Q602.17,210.19,609,209.91Z" transform="translate(-11.69 -96.13)"/><path class="cls-13" d="M684.89,144.25l2.67-1.25-2.67,13a9.62,9.62,0,0,0-1.14-3.85,6.59,6.59,0,0,0-6.28-3.89H664v26.56h14.84a11.25,11.25,0,0,0,7.07-2.36l-1.73,13.9a7.64,7.64,0,0,0-1.21-3.77q-2.3-3.75-7.63-3.75H664v26.35a15,15,0,0,0,3.26,3,15.74,15.74,0,0,0,9.19,3q5,0,9.26-4.68a20.37,20.37,0,0,0,3.29-4.68L687.56,214H649.7a12,12,0,0,0,3-1.63,6.63,6.63,0,0,0,3-5.37q0-4.92-.11-57.93-1.56-3.19-7.21-4.82Z" transform="translate(-11.69 -96.13)"/><text x="-11.69" y="-96.13"/></svg>